<svg width="154" height="45" viewBox="0 0 154 45" fill="none" xmlns="http://www.w3.org/2000/svg">
<path d="M0.626045 32L8.63942 9.77541H12.2705L20.2838 32H17.3414L15.119 25.6769H5.79091L3.56845 32H0.626045ZM6.69868 23.0476H14.2112L10.4549 12.1231L6.69868 23.0476ZM22.8017 36.6953V15.4098H25.2433L25.3059 18.9783L24.9303 18.7905C25.3476 17.5592 26.0363 16.6306 26.9962 16.0046C27.977 15.3576 29.1039 15.0342 30.3769 15.0342C32.0254 15.0342 33.3714 15.4411 34.4148 16.255C35.4791 17.0688 36.2617 18.1331 36.7625 19.4478C37.2842 20.7625 37.5451 22.1815 37.5451 23.7049C37.5451 25.2283 37.2842 26.6473 36.7625 27.962C36.2617 29.2767 35.4791 30.341 34.4148 31.1548C33.3714 31.9687 32.0254 32.3756 30.3769 32.3756C29.5213 32.3756 28.7178 32.2295 27.9666 31.9374C27.2362 31.6452 26.6102 31.2383 26.0885 30.7166C25.5876 30.1949 25.2433 29.5793 25.0555 28.8698L25.4311 28.4315V36.6953H22.8017ZM30.1264 29.8714C31.5663 29.8714 32.7037 29.3289 33.5384 28.2437C34.3731 27.1586 34.7905 25.6456 34.7905 23.7049C34.7905 21.7642 34.3731 20.2512 33.5384 19.1661C32.7037 18.0809 31.5663 17.5384 30.1264 17.5384C29.1665 17.5384 28.3318 17.7679 27.6223 18.227C26.9336 18.6861 26.391 19.3748 25.9945 20.293C25.6189 21.2112 25.4311 22.3485 25.4311 23.7049C25.4311 25.0613 25.6189 26.1987 25.9945 27.1169C26.3702 28.0351 26.9127 28.7237 27.6223 29.1828C28.3318 29.6419 29.1665 29.8714 30.1264 29.8714ZM41.1123 36.6953V15.4098H43.5539L43.6165 18.9783L43.2409 18.7905C43.6582 17.5592 44.3469 16.6306 45.3068 16.0046C46.2876 15.3576 47.4145 15.0342 48.6874 15.0342C50.336 15.0342 51.682 15.4411 52.7254 16.255C53.7897 17.0688 54.5723 18.1331 55.0731 19.4478C55.5948 20.7625 55.8557 22.1815 55.8557 23.7049C55.8557 25.2283 55.5948 26.6473 55.0731 27.962C54.5723 29.2767 53.7897 30.341 52.7254 31.1548C51.682 31.9687 50.336 32.3756 48.6874 32.3756C47.8318 32.3756 47.0284 32.2295 46.2772 31.9374C45.5468 31.6452 44.9207 31.2383 44.399 30.7166C43.8982 30.1949 43.5539 29.5793 43.3661 28.8698L43.7417 28.4315V36.6953H41.1123ZM48.437 29.8714C49.8769 29.8714 51.0142 29.3289 51.849 28.2437C52.6837 27.1586 53.1011 25.6456 53.1011 23.7049C53.1011 21.7642 52.6837 20.2512 51.849 19.1661C51.0142 18.0809 49.8769 17.5384 48.437 17.5384C47.4771 17.5384 46.6424 17.7679 45.9328 18.227C45.2442 18.6861 44.7016 19.3748 44.3051 20.293C43.9295 21.2112 43.7417 22.3485 43.7417 23.7049C43.7417 25.0613 43.9295 26.1987 44.3051 27.1169C44.6808 28.0351 45.2233 28.7237 45.9328 29.1828C46.6424 29.6419 47.4771 29.8714 48.437 29.8714ZM62.8312 32C61.8712 32 61.0887 31.7496 60.4835 31.2487C59.8783 30.7479 59.5757 29.9549 59.5757 28.8698V9.77541H62.2051V28.6507C62.2051 28.9846 62.2886 29.2454 62.4555 29.4332C62.6433 29.6002 62.9042 29.6836 63.2381 29.6836H64.678V32H62.8312ZM67.8767 36.6953V34.379H69.7861C70.3704 34.379 70.7982 34.2851 71.0695 34.0972C71.3617 33.9303 71.5808 33.6486 71.7269 33.2521L72.3216 31.687H71.4138L65.3412 15.4098H68.221L73.1668 29.2454L77.8934 15.4098H80.7732L74.0432 34.0972C73.7302 34.9946 73.2607 35.6519 72.6346 36.0693C72.0086 36.4867 71.1426 36.6953 70.0365 36.6953H67.8767ZM84.3451 32V9.77541H87.0371V30.7479L85.6911 29.3706H98.1494V32H84.3451ZM106.603 32.3756C104.892 32.3756 103.525 31.9791 102.503 31.1861C101.501 30.3932 101 29.2871 101 27.8681C101 26.4491 101.418 25.3326 102.252 24.5188C103.087 23.7049 104.412 23.131 106.228 22.7971L112.113 21.7016C112.113 20.3034 111.779 19.26 111.111 18.5713C110.464 17.8827 109.483 17.5384 108.169 17.5384C107.021 17.5384 106.113 17.7992 105.445 18.3209C104.777 18.8218 104.318 19.5521 104.068 20.5121L101.282 20.293C101.595 18.7279 102.346 17.4653 103.536 16.5054C104.746 15.5246 106.29 15.0342 108.169 15.0342C110.297 15.0342 111.925 15.6394 113.052 16.8497C114.179 18.0392 114.742 19.6878 114.742 21.7955V28.6507C114.742 29.0263 114.805 29.2976 114.93 29.4645C115.076 29.6106 115.305 29.6836 115.618 29.6836H116.276V32C116.192 32.0209 116.057 32.0313 115.869 32.0313C115.681 32.0522 115.483 32.0626 115.274 32.0626C114.523 32.0626 113.907 31.9478 113.427 31.7183C112.968 31.4679 112.634 31.0922 112.426 30.5914C112.217 30.0697 112.113 29.3915 112.113 28.5568L112.426 28.6194C112.28 29.3289 111.925 29.9758 111.361 30.5601C110.798 31.1235 110.099 31.5722 109.264 31.9061C108.429 32.2191 107.542 32.3756 106.603 32.3756ZM106.854 30.0593C107.96 30.0593 108.899 29.8506 109.671 29.4332C110.464 28.995 111.069 28.4107 111.487 27.6803C111.904 26.929 112.113 26.0943 112.113 25.1761V23.9866L106.729 24.9883C105.602 25.197 104.819 25.5204 104.381 25.9587C103.964 26.376 103.755 26.929 103.755 27.6177C103.755 28.3898 104.026 28.995 104.569 29.4332C105.132 29.8506 105.894 30.0593 106.854 30.0593ZM126.73 32.3756C125.582 32.3756 124.559 32.1252 123.662 31.6244C122.765 31.1027 122.076 30.3932 121.596 29.4958L121.502 32H119.123V9.77541H121.753V17.7262C122.17 17.0375 122.817 16.4219 123.693 15.8793C124.57 15.3159 125.582 15.0342 126.73 15.0342C128.191 15.0342 129.453 15.3889 130.517 16.0985C131.582 16.808 132.406 17.8097 132.99 19.1035C133.575 20.3973 133.867 21.9311 133.867 23.7049C133.867 25.4787 133.575 27.0125 132.99 28.3063C132.406 29.6002 131.582 30.6018 130.517 31.3114C129.453 32.0209 128.191 32.3756 126.73 32.3756ZM126.573 29.8714C127.971 29.8714 129.077 29.3184 129.891 28.2124C130.705 27.1064 131.112 25.6039 131.112 23.7049C131.112 21.785 130.705 20.2825 129.891 19.1974C129.077 18.0914 127.992 17.5384 126.636 17.5384C125.613 17.5384 124.737 17.7888 124.006 18.2896C123.276 18.7696 122.713 19.4687 122.316 20.3869C121.941 21.3051 121.753 22.4111 121.753 23.7049C121.753 24.957 121.941 26.0526 122.316 26.9916C122.713 27.9098 123.266 28.6194 123.975 29.1202C124.706 29.621 125.572 29.8714 126.573 29.8714Z" fill="#0C1442"/>
<circle cx="140.5" cy="28.5" r="3.5" fill="#AA1D1F"/>
</svg>
